<?xml version="1.0" encoding="utf-8"?>
<!-- Generator: Adobe Illustrator 16.0.0, SVG Export Plug-In . SVG Version: 6.00 Build 0)  -->
<!DOCTYPE svg PUBLIC "-//W3C//DTD SVG 1.1//EN" "http://www.w3.org/Graphics/SVG/1.1/DTD/svg11.dtd">
<svg version="1.1" id="Capa_1" xmlns="http://www.w3.org/2000/svg" xmlns:xlink="http://www.w3.org/1999/xlink" x="0px" y="0px"
	 width="841.889px" height="595.281px" viewBox="0 0 841.889 595.281" enable-background="new 0 0 841.889 595.281"
	 xml:space="preserve">
<g>
	<g>
		<path fill="#FFFFFF" d="M545.666,0H296.224c-95.348,0-172.919,77.571-172.919,172.92v249.441
			c0,95.348,77.571,172.92,172.919,172.92h249.441c95.349,0,172.919-77.572,172.919-172.919V172.92
			C718.584,77.571,641.014,0,545.666,0z M672.078,422.361c0,69.705-56.709,126.413-126.412,126.413H296.224
			c-69.704,0-126.413-56.708-126.413-126.412V172.92c0-69.705,56.709-126.413,126.413-126.413h249.441
			c69.704,0,126.413,56.708,126.413,126.413V422.361z"/>
	</g>
</g>
<g>
	<g>
		<path fill="#FFFFFF" d="M420.945,137.193c-88.471,0-160.446,71.976-160.446,160.447c0,88.471,71.976,160.446,160.446,160.446
			c88.472,0,160.446-71.976,160.446-160.446C581.391,209.169,509.416,137.193,420.945,137.193z M420.945,411.581
			c-62.826,0-113.94-51.114-113.94-113.94c0-62.827,51.114-113.94,113.94-113.94s113.94,51.113,113.94,113.94
			C534.885,360.467,483.771,411.581,420.945,411.581z"/>
	</g>
</g>
<g>
	<g>
		<circle fill="#FFFFFF" cx="583.717" cy="134.868" r="23.253"/>
	</g>
</g>
</svg>
