<?xml version="1.0" encoding="utf-8"?>
<!-- Generator: Adobe Illustrator 16.0.0, SVG Export Plug-In . SVG Version: 6.00 Build 0)  -->
<!DOCTYPE svg PUBLIC "-//W3C//DTD SVG 1.1//EN" "http://www.w3.org/Graphics/SVG/1.1/DTD/svg11.dtd">
<svg version="1.1" id="Capa_1" xmlns="http://www.w3.org/2000/svg" xmlns:xlink="http://www.w3.org/1999/xlink" x="0px" y="0px"
	 width="841.889px" height="595.281px" viewBox="0 0 841.889 595.281" enable-background="new 0 0 841.889 595.281"
	 xml:space="preserve">
<g>
	<g>
		<path fill="#FFFFFF" d="M788.435,71.832c-26.654,11.868-55.258,19.922-85.306,23.51c30.697-18.466,54.157-47.771,65.337-82.596
			c-28.799,17.112-60.595,29.505-94.439,36.279C646.874,19.947,608.337,1.833,565.511,1.833
			c-82.061,0-148.601,66.889-148.601,149.334c0,11.691,1.324,23.133,3.854,34.047c-123.516-6.222-233.031-65.71-306.333-156.108
			C101.63,51.133,94.33,76.801,94.33,104.198c0,51.861,26.242,97.599,66.087,124.345c-24.358-0.777-47.283-7.553-67.323-18.717
			v1.856c0,72.333,51.251,132.776,119.225,146.524c-12.442,3.363-25.583,5.195-39.146,5.195c-9.608,0-18.895-0.93-27.99-2.736
			c18.941,59.387,73.812,102.566,138.827,103.771c-50.826,40.043-114.956,63.828-184.6,63.828c-11.981,0-23.811-0.703-35.441-2.059
			c65.776,42.479,143.882,67.242,227.817,67.242c273.425,0,422.875-227.639,422.875-425.121l-0.5-19.344
			C743.311,128.083,768.568,101.765,788.435,71.832z"/>
	</g>
</g>
</svg>
